<?xml version="1.0" encoding="utf-8"?>
<!-- Generator: Adobe Illustrator 19.0.0, SVG Export Plug-In . SVG Version: 6.00 Build 0)  -->
<svg version="1.1" xmlns="http://www.w3.org/2000/svg" xmlns:xlink="http://www.w3.org/1999/xlink" x="0px" y="0px"
	 viewBox="0 0 390 326" style="enable-background:new 0 0 390 326;" xml:space="preserve">
<style type="text/css">
	.st0{display:none;}
	.st1{display:inline;fill:#F4F4F4;}
	.st2{fill:url(#SVGID_1_);}
	.st3{fill:url(#SVGID_2_);}
	.st4{filter:url(#Adobe_OpacityMaskFilter);}
	.st5{filter:url(#Adobe_OpacityMaskFilter_1_);}
	.st6{mask:url(#SVGID_3_);fill:url(#SVGID_4_);}
	.st7{opacity:0.49;fill:url(#SVGID_5_);}
	.st8{fill:url(#SVGID_6_);}
	.st9{fill:url(#SVGID_7_);}
	.st10{fill:url(#SVGID_8_);}
	.st11{fill:url(#SVGID_9_);}
	.st12{opacity:0.64;fill:url(#SVGID_10_);}
	.st13{display:inline;}
	.st14{fill:url(#SVGID_11_);}
	.st15{fill:url(#SVGID_12_);}
	.st16{fill:url(#SVGID_13_);}
	.st17{fill:url(#SVGID_14_);}
	.st18{fill:url(#SVGID_15_);}
	.st19{fill:url(#SVGID_16_);}
	.st20{fill:url(#SVGID_17_);}
	.st21{fill:url(#SVGID_18_);}
	.st22{fill:url(#SVGID_19_);}
	.st23{fill:url(#SVGID_20_);}
	.st24{fill:url(#SVGID_21_);}
	.st25{fill:url(#SVGID_22_);}
	.st26{fill:url(#SVGID_23_);}
	.st27{fill:url(#SVGID_24_);}
	.st28{fill:url(#SVGID_25_);}
	.st29{fill:url(#SVGID_26_);}
	.st30{fill:url(#SVGID_27_);}
	.st31{fill:url(#SVGID_28_);}
	.st32{fill:url(#SVGID_29_);}
	.st33{fill:url(#SVGID_30_);}
	.st34{fill:url(#SVGID_31_);}
	.st35{fill:url(#SVGID_32_);}
	.st36{fill:url(#SVGID_33_);}
</style>
<g id="Background" class="st0">
	<rect x="-191" y="-139" class="st1" width="800" height="800"/>
</g>
<g id="Objects">
	<g>
		
			<linearGradient id="SVGID_1_" gradientUnits="userSpaceOnUse" x1="226.7384" y1="148.7994" x2="226.7384" y2="-126.6615" gradientTransform="matrix(0.5181 -0.8553 -0.8553 -0.5181 58.3005 398.8751)">
			<stop  offset="0" style="stop-color:#1C75BC"/>
			<stop  offset="1" style="stop-color:#27CDE1"/>
		</linearGradient>
		<path class="st2" d="M271.8,290.9l-88.6-162.1c-8.4-15.4-24.5-25.1-42-25.3l-55.7-0.8c-13.4-0.2-25.9,6.7-32.8,18.2l-36.9,60.9
			c-19.6,32.3,57.9,14,78.7-17.5c0.5-0.8,7.9-13,7.9-13l22.6,39.9c29.9,52.8,82,89.9,142,99C268.6,290.4,270.2,290.7,271.8,290.9z"
			/>
		
			<linearGradient id="SVGID_2_" gradientUnits="userSpaceOnUse" x1="151.1237" y1="119.6707" x2="250.4464" y2="119.6707" gradientTransform="matrix(0.5181 -0.8553 -0.8553 -0.5181 58.3005 398.8751)">
			<stop  offset="0" style="stop-color:#27AAE1"/>
			<stop  offset="1" style="stop-color:#2B3990"/>
		</linearGradient>
		<path class="st3" d="M102.4,151.3c-1.3-2.2-9-15.9-9-15.9s-22.4-44.8-49.3-0.5l-28.4,46.8c-19.6,32.3,57.9,14,78.7-17.5
			C95,163.4,102.4,151.3,102.4,151.3"/>
		<defs>
			<filter id="Adobe_OpacityMaskFilter" filterUnits="userSpaceOnUse" x="78.7" y="102.7" width="193.1" height="188.2">
				<feFlood  style="flood-color:white;flood-opacity:1" result="back"/>
				<feBlend  in="SourceGraphic" in2="back" mode="normal"/>
			</filter>
		</defs>
		<mask maskUnits="userSpaceOnUse" x="78.7" y="102.7" width="193.1" height="188.2" id="SVGID_3_">
			<g class="st4">
				<defs>
					<filter id="Adobe_OpacityMaskFilter_1_" filterUnits="userSpaceOnUse" x="78.7" y="102.7" width="193.1" height="188.2">
						<feFlood  style="flood-color:white;flood-opacity:1" result="back"/>
						<feBlend  in="SourceGraphic" in2="back" mode="normal"/>
					</filter>
				</defs>
				<mask maskUnits="userSpaceOnUse" x="78.7" y="102.7" width="193.1" height="188.2" id="SVGID_3_">
					<g class="st5">
					</g>
				</mask>
				
					<linearGradient id="SVGID_4_" gradientUnits="userSpaceOnUse" x1="117.44" y1="127.1962" x2="117.44" y2="-65.504" gradientTransform="matrix(-2.000000e-003 -1 -1 2.000000e-003 206.3488 314.1719)">
					<stop  offset="0" style="stop-color:#000000"/>
					<stop  offset="8.854192e-002" style="stop-color:#282828"/>
					<stop  offset="0.2261" style="stop-color:#606060"/>
					<stop  offset="0.3644" style="stop-color:#919191"/>
					<stop  offset="0.5004" style="stop-color:#B9B9B9"/>
					<stop  offset="0.6335" style="stop-color:#D7D7D7"/>
					<stop  offset="0.7629" style="stop-color:#EDEDED"/>
					<stop  offset="0.8869" style="stop-color:#FBFBFB"/>
					<stop  offset="1" style="stop-color:#FFFFFF"/>
				</linearGradient>
				<path class="st6" d="M225.7,279.1l-82.1-150.2c-8.4-15.4-24.5-25.1-42-25.3l-22.9-0.3c2.2-0.4,4.5-0.6,6.8-0.5l55.7,0.8
					c17.5,0.2,33.6,9.9,42,25.3l88.6,162.1c-1.6-0.2-3.2-0.4-4.8-0.7C252.7,288,238.9,284.2,225.7,279.1z"/>
			</g>
		</mask>
		
			<linearGradient id="SVGID_5_" gradientUnits="userSpaceOnUse" x1="117.44" y1="127.1962" x2="117.44" y2="-65.504" gradientTransform="matrix(-2.000000e-003 -1 -1 2.000000e-003 206.3488 314.1719)">
			<stop  offset="0" style="stop-color:#27AAE1"/>
			<stop  offset="3.282845e-003" style="stop-color:#28ABE1"/>
			<stop  offset="0.1539" style="stop-color:#61C1E9"/>
			<stop  offset="0.305" style="stop-color:#91D4F0"/>
			<stop  offset="0.4536" style="stop-color:#B9E3F5"/>
			<stop  offset="0.5991" style="stop-color:#D7EFF9"/>
			<stop  offset="0.7406" style="stop-color:#EDF8FD"/>
			<stop  offset="0.8764" style="stop-color:#FBFDFE"/>
			<stop  offset="1" style="stop-color:#FFFFFF"/>
		</linearGradient>
		<path class="st7" d="M225.7,279.1l-82.1-150.2c-8.4-15.4-24.5-25.1-42-25.3l-22.9-0.3c2.2-0.4,4.5-0.6,6.8-0.5l55.7,0.8
			c17.5,0.2,33.6,9.9,42,25.3l88.6,162.1c-1.6-0.2-3.2-0.4-4.8-0.7C252.7,288,238.9,284.2,225.7,279.1z"/>
		
			<linearGradient id="SVGID_6_" gradientUnits="userSpaceOnUse" x1="129.9144" y1="23.0538" x2="129.3762" y2="160.298" gradientTransform="matrix(1.900000e-003 -1 -1 -1.900000e-003 205.3177 315.2404)">
			<stop  offset="0" style="stop-color:#88D0E1"/>
			<stop  offset="1" style="stop-color:#27AEE1"/>
		</linearGradient>
		<path class="st8" d="M46.2,131.1c0,0,0.4-0.7,1.4-1.9c0.9-1.2,2.4-3,4.4-5.1c2.1-2,4.8-4.3,8.3-6.1c3.5-1.7,8.2-2.7,12.8-1.2
			c2.3,0.7,4.5,1.9,6.6,3.5c2.1,1.6,4,3.5,5.8,5.7c1.8,2.1,3.4,4.6,5,7.1c1.4,2.5,2.9,5.3,4.5,8c6.1,10.9,12.5,22.5,19,34.2
			c3.3,5.8,6.5,11.6,9.8,17.2c3.2,5.8,6.8,11.2,10.5,16.3c3.7,5.1,7.5,9.8,11.2,14.1c1.9,2.2,3.8,4.2,5.6,6.2
			c1.9,1.9,3.7,3.8,5.4,5.6c1.8,1.7,3.5,3.4,5.2,5c1.7,1.5,3.3,2.9,4.9,4.3c1.5,1.4,3,2.5,4.4,3.6c1.4,1.1,2.6,2.1,3.8,3
			c2.3,1.8,4.2,3.1,5.4,4c1.3,0.9,1.9,1.4,1.9,1.4s-2.6-2.1-7.1-5.8c-1.1-1-2.3-2-3.6-3.2c-1.3-1.2-2.8-2.4-4.2-3.8
			c-1.5-1.4-3-2.9-4.6-4.5c-1.6-1.6-3.3-3.3-5-5.1c-1.7-1.8-3.4-3.7-5.3-5.7c-1.7-2-3.6-4.1-5.4-6.3c-3.6-4.4-7.2-9.2-10.8-14.2
			c-3.6-5.1-7.1-10.5-10.2-16.1c-3.2-5.7-6.4-11.6-9.6-17.4c-6.6-11.6-13.1-23.1-19.3-34c-1.6-2.7-3-5.4-4.6-8
			c-1.7-2.5-3.4-5-5.3-7.2c-1.9-2.2-4-4.2-6.2-5.8c-2.2-1.7-4.7-2.9-7.2-3.6c-2.5-0.7-5-0.8-7.4-0.4c-2.3,0.4-4.4,1.2-6.2,2.2
			c-3.6,2-6.3,4.5-8.3,6.6c-2,2.2-3.3,4-4.2,5.3C46.6,130.4,46.2,131.1,46.2,131.1z"/>
	</g>
	<g>
		
			<linearGradient id="SVGID_7_" gradientUnits="userSpaceOnUse" x1="-543.5309" y1="-190.3168" x2="-414.722" y2="35.5835" gradientTransform="matrix(-0.5096 0.8604 0.8604 0.5096 82.4569 533.7272)">
			<stop  offset="0" style="stop-color:#AFD838"/>
			<stop  offset="1" style="stop-color:#39B54A"/>
		</linearGradient>
		<path class="st9" d="M118.8,12.9l90.2,161.2c8.6,15.3,24.7,24.8,42.2,24.9l55.7,0.2c13.4,0.1,25.8-7,32.6-18.5l36.3-61.2
			c19.2-32.5-58-13.4-78.5,18.3c-0.5,0.8-7.8,13-7.8,13l-23-39.7c-30.4-52.5-82.9-89.1-143-97.6C122,13.3,120.4,13.1,118.8,12.9z"/>
		
			<linearGradient id="SVGID_8_" gradientUnits="userSpaceOnUse" x1="-518.476" y1="12.1548" x2="-419.1546" y2="12.1548" gradientTransform="matrix(-0.5096 0.8604 0.8604 0.5096 82.4569 533.7272)">
			<stop  offset="0" style="stop-color:#399F4A"/>
			<stop  offset="1" style="stop-color:#006838"/>
		</linearGradient>
		<path class="st10" d="M289.5,150.8c1.3,2.2,9.1,15.8,9.1,15.8s22.9,44.6,49.3,0l27.9-47.1c19.2-32.5-58-13.4-78.5,18.3
			C296.8,138.6,289.5,150.8,289.5,150.8"/>
		
			<linearGradient id="SVGID_9_" gradientUnits="userSpaceOnUse" x1="915.1005" y1="43.7543" x2="915.6389" y2="-93.499" gradientTransform="matrix(-1.100000e-002 -0.9999 -0.9999 1.100000e-002 262.4106 1032.621)">
			<stop  offset="0" style="stop-color:#E0FF3F"/>
			<stop  offset="1" style="stop-color:#39B54A"/>
		</linearGradient>
		<path class="st11" d="M345.6,170.5c0,0-0.4,0.7-1.4,2c-0.9,1.3-2.4,3-4.4,5.1c-2,2-4.7,4.4-8.3,6.2c-3.5,1.8-8.1,2.8-12.8,1.4
			c-2.3-0.7-4.6-1.8-6.6-3.4c-2.1-1.6-4.1-3.5-5.8-5.6c-1.8-2.1-3.5-4.5-5.1-7c-1.5-2.5-3-5.2-4.6-7.9
			c-6.2-10.8-12.8-22.4-19.4-33.9c-3.3-5.7-6.7-11.5-10-17.1c-3.3-5.8-6.9-11.1-10.7-16.2c-3.7-5-7.6-9.7-11.4-14
			c-1.9-2.1-3.8-4.2-5.7-6.1c-1.9-1.9-3.7-3.8-5.5-5.5c-1.8-1.7-3.6-3.4-5.2-4.9c-1.7-1.5-3.4-2.9-4.9-4.2c-1.5-1.3-3-2.5-4.4-3.6
			c-1.4-1.1-2.6-2.1-3.8-3c-2.3-1.7-4.2-3-5.5-3.9c-1.3-0.9-1.9-1.4-1.9-1.4s2.6,2.1,7.1,5.7c1.1,0.9,2.3,2,3.6,3.1
			c1.3,1.1,2.8,2.4,4.2,3.8c1.5,1.4,3,2.9,4.7,4.4c1.6,1.6,3.3,3.3,5.1,5c1.7,1.8,3.5,3.7,5.3,5.6c1.8,2,3.6,4.1,5.5,6.2
			c3.7,4.4,7.4,9.1,11,14.1c3.6,5,7.2,10.4,10.4,16c3.3,5.7,6.6,11.5,9.9,17.3c6.7,11.5,13.4,23,19.7,33.7c1.6,2.7,3,5.3,4.7,7.9
			c1.7,2.5,3.4,4.9,5.4,7.1c1.9,2.2,4,4.1,6.3,5.7c2.2,1.6,4.7,2.8,7.2,3.5c2.5,0.7,5.1,0.7,7.4,0.3c2.3-0.4,4.4-1.3,6.2-2.3
			c3.6-2,6.2-4.6,8.2-6.7c2-2.2,3.3-4.1,4.1-5.4C345.2,171.2,345.6,170.5,345.6,170.5z"/>
		
			<linearGradient id="SVGID_10_" gradientUnits="userSpaceOnUse" x1="-618.6586" y1="742.2965" x2="-618.6586" y2="549.5919" gradientTransform="matrix(1.490000e-002 0.9999 0.9999 -1.490000e-002 -420.1494 734.2485)">
			<stop  offset="0" style="stop-color:#399F4A"/>
			<stop  offset="1" style="stop-color:#006838"/>
		</linearGradient>
		<path class="st12" d="M118.8,13.2c1.6,0.2,3.2,0.4,4.8,0.6c14.3,2,28.2,5.6,41.5,10.6l84,149.1c8.6,15.3,24.8,24.7,42.3,24.8
			l22.9,0c-2.2,0.4-4.5,0.6-6.8,0.6l-55.7-0.1c-17.5,0-33.7-9.5-42.3-24.8L118.8,13.2"/>
	</g>
	<g class="st0">
		<rect x="-92.4" y="426.1" style="display:inline;fill:none;" width="642" height="124.5"/>
		<text transform="matrix(1 0 0 1 -92.394 465.8418)" class="st13"><tspan x="0" y="0" style="fill:none; font-family:'MyriadPro-Regular'; font-size:56px;">Nxt</tspan><tspan x="81.3" y="0" style="opacity:0.64; font-family:'MyriadPro-Regular'; font-size:56px;">     </tspan><tspan x="140.7" y="0" style="font-family:'MyriadPro-Regular'; font-size:56px;">   </tspan><tspan x="176.3" y="0" style="fill:none; font-family:'MyriadPro-Regular'; font-size:56px;">Technologies Ltd.</tspan></text>
		<g class="st13">
			<linearGradient id="SVGID_11_" gradientUnits="userSpaceOnUse" x1="-88.1382" y1="451.814" x2="494.3633" y2="451.814">
				<stop  offset="0" style="stop-color:#2B3990"/>
				<stop  offset="1" style="stop-color:#27AAE1"/>
			</linearGradient>
			<path class="st14" d="M-88.1,465.8v-37.7h5.3l12.1,19.1c2.8,4.4,5,8.4,6.8,12.3l0.1-0.1c-0.4-5-0.6-9.6-0.6-15.5v-15.8h4.6v37.7
				h-4.9l-12-19.2c-2.6-4.2-5.2-8.5-7.1-12.6l-0.2,0.1c0.3,4.8,0.4,9.3,0.4,15.6v16.1H-88.1z"/>
			<linearGradient id="SVGID_12_" gradientUnits="userSpaceOnUse" x1="-88.1382" y1="451.814" x2="494.3633" y2="451.814">
				<stop  offset="0" style="stop-color:#2B3990"/>
				<stop  offset="1" style="stop-color:#27AAE1"/>
			</linearGradient>
			<path class="st15" d="M-49.2,438.7l3.9,5.8c1,1.5,1.8,2.9,2.7,4.4h0.2c0.9-1.6,1.8-3,2.7-4.5l3.8-5.8h5.3l-9.2,13.1l9.5,14h-5.6
				l-4-6.1c-1.1-1.6-2-3.1-2.9-4.7h-0.1c-0.9,1.6-1.8,3.1-2.9,4.7l-3.9,6.1h-5.4l9.6-13.8l-9.2-13.3H-49.2z"/>
			<linearGradient id="SVGID_13_" gradientUnits="userSpaceOnUse" x1="-88.1382" y1="451.814" x2="494.3633" y2="451.814">
				<stop  offset="0" style="stop-color:#2B3990"/>
				<stop  offset="1" style="stop-color:#27AAE1"/>
			</linearGradient>
			<path class="st16" d="M-19.6,431v7.8h7.1v3.8h-7.1v14.6c0,3.4,1,5.3,3.7,5.3c1.3,0,2.2-0.2,2.9-0.3l0.2,3.7
				c-1,0.4-2.5,0.7-4.4,0.7c-2.3,0-4.1-0.7-5.3-2.1c-1.4-1.5-1.9-3.9-1.9-7.1v-14.8h-4.2v-3.8h4.2v-6.5L-19.6,431z"/>
			<linearGradient id="SVGID_14_" gradientUnits="userSpaceOnUse" x1="-88.1382" y1="451.814" x2="494.3633" y2="451.814">
				<stop  offset="0" style="stop-color:#2B3990"/>
				<stop  offset="1" style="stop-color:#27AAE1"/>
			</linearGradient>
			<path class="st17" d="M95.3,432.2H83.8v-4.1h27.9v4.1h-11.5v33.6h-4.9V432.2z"/>
			<linearGradient id="SVGID_15_" gradientUnits="userSpaceOnUse" x1="-88.1382" y1="451.814" x2="494.3633" y2="451.814">
				<stop  offset="0" style="stop-color:#2B3990"/>
				<stop  offset="1" style="stop-color:#27AAE1"/>
			</linearGradient>
			<path class="st18" d="M118.6,453.2c0.1,6.7,4.4,9.4,9.3,9.4c3.5,0,5.7-0.6,7.5-1.4l0.8,3.5c-1.7,0.8-4.7,1.7-9,1.7
				c-8.3,0-13.3-5.5-13.3-13.7c0-8.2,4.8-14.6,12.7-14.6c8.8,0,11.2,7.8,11.2,12.8c0,1-0.1,1.8-0.2,2.3H118.6z M133,449.7
				c0.1-3.1-1.3-8-6.8-8c-5,0-7.2,4.6-7.6,8H133z"/>
			<linearGradient id="SVGID_16_" gradientUnits="userSpaceOnUse" x1="-88.1382" y1="451.814" x2="494.3633" y2="451.814">
				<stop  offset="0" style="stop-color:#2B3990"/>
				<stop  offset="1" style="stop-color:#27AAE1"/>
			</linearGradient>
			<path class="st19" d="M163.2,464.8c-1.3,0.7-4.1,1.6-7.8,1.6c-8.2,0-13.5-5.5-13.5-13.8c0-8.3,5.7-14.4,14.6-14.4
				c2.9,0,5.5,0.7,6.8,1.4l-1.1,3.8c-1.2-0.7-3-1.3-5.7-1.3c-6.2,0-9.6,4.6-9.6,10.2c0,6.3,4,10.1,9.4,10.1c2.8,0,4.6-0.7,6-1.3
				L163.2,464.8z"/>
			<linearGradient id="SVGID_17_" gradientUnits="userSpaceOnUse" x1="-88.1382" y1="451.814" x2="494.3633" y2="451.814">
				<stop  offset="0" style="stop-color:#2B3990"/>
				<stop  offset="1" style="stop-color:#27AAE1"/>
			</linearGradient>
			<path class="st20" d="M169,426.1h4.9V443h0.1c0.8-1.4,2-2.6,3.5-3.5c1.5-0.8,3.2-1.4,5-1.4c3.6,0,9.5,2.2,9.5,11.6v16.1h-4.9
				v-15.6c0-4.4-1.6-8.1-6.3-8.1c-3.2,0-5.7,2.2-6.6,4.9c-0.3,0.7-0.3,1.4-0.3,2.4v16.4H169V426.1z"/>
			<linearGradient id="SVGID_18_" gradientUnits="userSpaceOnUse" x1="-88.1382" y1="451.814" x2="494.3633" y2="451.814">
				<stop  offset="0" style="stop-color:#2B3990"/>
				<stop  offset="1" style="stop-color:#27AAE1"/>
			</linearGradient>
			<path class="st21" d="M200,446.1c0-2.8-0.1-5.1-0.2-7.3h4.4l0.3,4.5h0.1c1.3-2.6,4.5-5.1,9-5.1c3.8,0,9.6,2.2,9.6,11.5v16.2h-4.9
				v-15.6c0-4.4-1.6-8-6.3-8c-3.2,0-5.8,2.3-6.6,5c-0.2,0.6-0.3,1.5-0.3,2.3v16.3H200V446.1z"/>
			<linearGradient id="SVGID_19_" gradientUnits="userSpaceOnUse" x1="-88.1382" y1="451.814" x2="494.3633" y2="451.814">
				<stop  offset="0" style="stop-color:#2B3990"/>
				<stop  offset="1" style="stop-color:#27AAE1"/>
			</linearGradient>
			<path class="st22" d="M255.6,452.1c0,10-6.9,14.4-13.5,14.4c-7.3,0-13-5.4-13-13.9c0-9.1,5.9-14.4,13.4-14.4
				C250.4,438.1,255.6,443.8,255.6,452.1z M234.1,452.3c0,5.9,3.4,10.4,8.2,10.4c4.7,0,8.2-4.4,8.2-10.5c0-4.6-2.3-10.4-8.1-10.4
				S234.1,447.2,234.1,452.3z"/>
			<linearGradient id="SVGID_20_" gradientUnits="userSpaceOnUse" x1="-88.1382" y1="451.814" x2="494.3633" y2="451.814">
				<stop  offset="0" style="stop-color:#2B3990"/>
				<stop  offset="1" style="stop-color:#27AAE1"/>
			</linearGradient>
			<path class="st23" d="M261.9,426.1h4.9v39.8h-4.9V426.1z"/>
			<linearGradient id="SVGID_21_" gradientUnits="userSpaceOnUse" x1="-88.1382" y1="451.814" x2="494.3633" y2="451.814">
				<stop  offset="0" style="stop-color:#2B3990"/>
				<stop  offset="1" style="stop-color:#27AAE1"/>
			</linearGradient>
			<path class="st24" d="M299.6,452.1c0,10-6.9,14.4-13.5,14.4c-7.3,0-13-5.4-13-13.9c0-9.1,5.9-14.4,13.4-14.4
				C294.3,438.1,299.6,443.8,299.6,452.1z M278.1,452.3c0,5.9,3.4,10.4,8.2,10.4c4.7,0,8.2-4.4,8.2-10.5c0-4.6-2.3-10.4-8.1-10.4
				S278.1,447.2,278.1,452.3z"/>
			<linearGradient id="SVGID_22_" gradientUnits="userSpaceOnUse" x1="-88.1382" y1="451.814" x2="494.3633" y2="451.814">
				<stop  offset="0" style="stop-color:#2B3990"/>
				<stop  offset="1" style="stop-color:#27AAE1"/>
			</linearGradient>
			<path class="st25" d="M329.2,438.7c-0.1,2-0.2,4.1-0.2,7.4v15.7c0,6.2-1.2,10-3.9,12.4c-2.6,2.5-6.4,3.2-9.9,3.2
				c-3.2,0-6.8-0.8-9-2.2l1.2-3.8c1.8,1.1,4.6,2.1,8,2.1c5,0,8.7-2.6,8.7-9.5v-3H324c-1.5,2.5-4.4,4.5-8.6,4.5
				c-6.7,0-11.5-5.7-11.5-13.2c0-9.2,6-14.4,12.2-14.4c4.7,0,7.3,2.5,8.5,4.7h0.1l0.2-4.1H329.2z M324.1,449.4
				c0-0.8-0.1-1.6-0.3-2.2c-0.9-2.9-3.3-5.2-6.9-5.2c-4.7,0-8.1,4-8.1,10.2c0,5.3,2.7,9.7,8,9.7c3,0,5.8-1.9,6.8-5
				c0.3-0.8,0.4-1.8,0.4-2.6V449.4z"/>
			<linearGradient id="SVGID_23_" gradientUnits="userSpaceOnUse" x1="-88.1382" y1="451.814" x2="494.3633" y2="451.814">
				<stop  offset="0" style="stop-color:#2B3990"/>
				<stop  offset="1" style="stop-color:#27AAE1"/>
			</linearGradient>
			<path class="st26" d="M342.6,431.1c0.1,1.7-1.2,3-3.1,3c-1.7,0-3-1.3-3-3c0-1.7,1.3-3.1,3.1-3.1
				C341.4,428,342.6,429.4,342.6,431.1z M337.1,465.8v-27.1h4.9v27.1H337.1z"/>
			<linearGradient id="SVGID_24_" gradientUnits="userSpaceOnUse" x1="-88.1382" y1="451.814" x2="494.3633" y2="451.814">
				<stop  offset="0" style="stop-color:#2B3990"/>
				<stop  offset="1" style="stop-color:#27AAE1"/>
			</linearGradient>
			<path class="st27" d="M353,453.2c0.1,6.7,4.4,9.4,9.3,9.4c3.5,0,5.7-0.6,7.5-1.4l0.8,3.5c-1.7,0.8-4.7,1.7-9,1.7
				c-8.3,0-13.3-5.5-13.3-13.7c0-8.2,4.8-14.6,12.7-14.6c8.8,0,11.2,7.8,11.2,12.8c0,1-0.1,1.8-0.2,2.3H353z M367.4,449.7
				c0.1-3.1-1.3-8-6.8-8c-5,0-7.2,4.6-7.6,8H367.4z"/>
			<linearGradient id="SVGID_25_" gradientUnits="userSpaceOnUse" x1="-88.1382" y1="451.814" x2="494.3633" y2="451.814">
				<stop  offset="0" style="stop-color:#2B3990"/>
				<stop  offset="1" style="stop-color:#27AAE1"/>
			</linearGradient>
			<path class="st28" d="M377.6,460.8c1.5,1,4,2,6.5,2c3.6,0,5.3-1.8,5.3-4c0-2.4-1.4-3.6-5-5c-4.9-1.7-7.2-4.4-7.2-7.7
				c0-4.4,3.5-8,9.4-8c2.7,0,5.2,0.8,6.7,1.7l-1.2,3.6c-1.1-0.7-3-1.6-5.5-1.6c-2.9,0-4.5,1.7-4.5,3.7c0,2.2,1.6,3.2,5.2,4.6
				c4.7,1.8,7.1,4.1,7.1,8.2c0,4.8-3.7,8.1-10.1,8.1c-3,0-5.7-0.7-7.6-1.8L377.6,460.8z"/>
			<linearGradient id="SVGID_26_" gradientUnits="userSpaceOnUse" x1="-88.1382" y1="451.814" x2="494.3633" y2="451.814">
				<stop  offset="0" style="stop-color:#2B3990"/>
				<stop  offset="1" style="stop-color:#27AAE1"/>
			</linearGradient>
			<path class="st29" d="M412.5,428.1h4.9v33.7h16.1v4.1h-21V428.1z"/>
			<linearGradient id="SVGID_27_" gradientUnits="userSpaceOnUse" x1="-88.1382" y1="451.814" x2="494.3633" y2="451.814">
				<stop  offset="0" style="stop-color:#2B3990"/>
				<stop  offset="1" style="stop-color:#27AAE1"/>
			</linearGradient>
			<path class="st30" d="M444.7,431v7.8h7.1v3.8h-7.1v14.6c0,3.4,1,5.3,3.7,5.3c1.3,0,2.2-0.2,2.9-0.3l0.2,3.7
				c-1,0.4-2.5,0.7-4.4,0.7c-2.3,0-4.1-0.7-5.3-2.1c-1.4-1.5-1.9-3.9-1.9-7.1v-14.8h-4.2v-3.8h4.2v-6.5L444.7,431z"/>
			<linearGradient id="SVGID_28_" gradientUnits="userSpaceOnUse" x1="-88.1382" y1="451.814" x2="494.3633" y2="451.814">
				<stop  offset="0" style="stop-color:#2B3990"/>
				<stop  offset="1" style="stop-color:#27AAE1"/>
			</linearGradient>
			<path class="st31" d="M480.7,426.1v32.8c0,2.4,0.1,5.2,0.2,7h-4.4l-0.2-4.7h-0.1c-1.5,3-4.8,5.3-9.2,5.3
				c-6.6,0-11.6-5.5-11.6-13.8c-0.1-9,5.5-14.6,12.2-14.6c4.1,0,6.9,2,8.2,4.1h0.1v-16.2H480.7z M475.8,449.8c0-0.6-0.1-1.5-0.2-2.1
				c-0.7-3.1-3.4-5.7-7.1-5.7c-5.1,0-8.1,4.5-8.1,10.5c0,5.5,2.7,10,8,10c3.3,0,6.3-2.2,7.2-5.9c0.2-0.7,0.2-1.3,0.2-2.1V449.8z"/>
			<linearGradient id="SVGID_29_" gradientUnits="userSpaceOnUse" x1="-88.1382" y1="451.814" x2="494.3633" y2="451.814">
				<stop  offset="0" style="stop-color:#2B3990"/>
				<stop  offset="1" style="stop-color:#27AAE1"/>
			</linearGradient>
			<path class="st32" d="M487.7,462.9c0-2.1,1.4-3.5,3.4-3.5c2,0,3.3,1.5,3.3,3.5c0,2-1.3,3.5-3.4,3.5
				C489,466.5,487.7,464.9,487.7,462.9z"/>
		</g>
	</g>
	<g class="st0">
		<g class="st13">
			<linearGradient id="SVGID_30_" gradientUnits="userSpaceOnUse" x1="-19.1279" y1="446.1836" x2="58.5425" y2="446.1836">
				<stop  offset="0" style="stop-color:#399F4A"/>
				<stop  offset="1" style="stop-color:#006838"/>
			</linearGradient>
			<path class="st33" d="M-19.1,428.3h4.9V462H1.9v4.1h-21V428.3z"/>
			<linearGradient id="SVGID_31_" gradientUnits="userSpaceOnUse" x1="-19.1279" y1="446.1836" x2="58.5425" y2="446.1836">
				<stop  offset="0" style="stop-color:#399F4A"/>
				<stop  offset="1" style="stop-color:#006838"/>
			</linearGradient>
			<path class="st34" d="M12.6,431.4c0.1,1.7-1.2,3-3.1,3c-1.7,0-3-1.3-3-3c0-1.7,1.3-3.1,3.1-3.1C11.4,428.3,12.6,429.6,12.6,431.4
				z M7.1,466.1V439h4.9v27.1H7.1z"/>
			<linearGradient id="SVGID_32_" gradientUnits="userSpaceOnUse" x1="-19.1279" y1="446.1836" x2="58.5425" y2="446.1836">
				<stop  offset="0" style="stop-color:#399F4A"/>
				<stop  offset="1" style="stop-color:#006838"/>
			</linearGradient>
			<path class="st35" d="M20.7,466.1v-23.4h-3.8V439h3.8v-1.3c0-3.8,0.8-7.3,3.1-9.5c1.8-1.8,4.3-2.5,6.6-2.5c1.7,0,3.2,0.4,4.2,0.8
				l-0.7,3.8c-0.7-0.3-1.7-0.6-3.1-0.6c-4.2,0-5.3,3.7-5.3,7.8v1.5h6.6v3.8h-6.6v23.4H20.7z"/>
			<linearGradient id="SVGID_33_" gradientUnits="userSpaceOnUse" x1="-19.1279" y1="446.1836" x2="58.5425" y2="446.1836">
				<stop  offset="0" style="stop-color:#399F4A"/>
				<stop  offset="1" style="stop-color:#006838"/>
			</linearGradient>
			<path class="st36" d="M39.3,453.4c0.1,6.7,4.4,9.4,9.3,9.4c3.5,0,5.7-0.6,7.5-1.4L57,465c-1.7,0.8-4.7,1.7-9,1.7
				c-8.3,0-13.3-5.5-13.3-13.7c0-8.2,4.8-14.6,12.7-14.6c8.8,0,11.2,7.8,11.2,12.8c0,1-0.1,1.8-0.2,2.3H39.3z M53.8,449.9
				c0.1-3.1-1.3-8-6.8-8c-5,0-7.2,4.6-7.6,8H53.8z"/>
		</g>
	</g>
</g>
</svg>
